<svg xmlns="http://www.w3.org/2000/svg" width="167" height="49" viewBox="0 0 167 49">
    <defs>
        <filter id="t69r14j5xa">
            <feColorMatrix in="SourceGraphic" values="0 0 0 0 0.000000 0 0 0 0 0.000000 0 0 0 0 0.000000 0 0 0 1.000000 0"/>
        </filter>
        <filter id="o0xu3dq9db">
            <feColorMatrix in="SourceGraphic" values="0 0 0 0 0.000000 0 0 0 0 0.000000 0 0 0 0 0.000000 0 0 0 1.000000 0"/>
        </filter>
        <filter id="udo1zs9tsc">
            <feColorMatrix in="SourceGraphic" values="0 0 0 0 1.000000 0 0 0 0 1.000000 0 0 0 0 1.000000 0 0 0 1.000000 0"/>
        </filter>
        <filter id="4889sxfind">
            <feColorMatrix in="SourceGraphic" values="0 0 0 0 1.000000 0 0 0 0 1.000000 0 0 0 0 1.000000 0 0 0 1.000000 0"/>
        </filter>
        <filter id="01fz9k2nce">
            <feColorMatrix in="SourceGraphic" values="0 0 0 0 0.000000 0 0 0 0 0.000000 0 0 0 0 0.000000 0 0 0 1.000000 0"/>
        </filter>
    </defs>
    <g fill="none" fill-rule="evenodd" opacity=".8">
        <g>
            <g filter="url(#t69r14j5xa)" transform="translate(-228 -58) translate(228 58)">
                <path fill="#000" fill-rule="nonzero" d="M66.162 21.8c.743 0 1.476-.152 2.2-.457.724-.305 1.376-.772 1.957-1.4.581-.629 1.053-1.433 1.415-2.414.362-.981.543-2.148.543-3.5 0-1.353-.181-2.52-.543-3.5-.362-.981-.834-1.786-1.415-2.415-.58-.628-1.233-1.095-1.957-1.4-.724-.304-1.457-.457-2.2-.457-.914 0-1.795.176-2.643.529-.847.352-1.519.91-2.014 1.671h-.057V1.03h-4.057v20.4h3.857v-1.886h.057c.438.819 1.086 1.4 1.943 1.743.857.343 1.829.514 2.914.514zm-1.4-3.029c-.59 0-1.105-.128-1.543-.385-.438-.257-.8-.605-1.085-1.043-.286-.438-.496-.943-.629-1.514-.133-.572-.2-1.162-.2-1.772 0-.628.067-1.228.2-1.8.133-.571.343-1.076.629-1.514.285-.438.647-.786 1.085-1.043.438-.257.953-.386 1.543-.386.61 0 1.129.129 1.557.386.429.257.786.605 1.072 1.043.286.438.495.943.628 1.514.134.572.2 1.172.2 1.8 0 .61-.066 1.2-.2 1.772-.133.571-.342 1.076-.628 1.514-.286.438-.643.786-1.072 1.043-.428.257-.947.385-1.557.385zm13.661 2.658V14.77c0-.666.067-1.285.2-1.857.134-.571.358-1.071.672-1.5.314-.428.728-.766 1.243-1.014.514-.248 1.143-.371 1.885-.371.248 0 .505.014.772.042.267.029.495.062.686.1V6.4c-.324-.095-.62-.143-.886-.143-.514 0-1.01.076-1.486.229-.476.152-.924.366-1.343.643-.419.276-.79.61-1.114 1-.324.39-.58.814-.771 1.271h-.058V6.657h-3.857V21.43h4.057zm13.233.371c1.162 0 2.214-.181 3.157-.543.943-.362 1.748-.88 2.415-1.557.666-.676 1.18-1.49 1.542-2.443.362-.952.543-2.019.543-3.2 0-1.18-.18-2.252-.543-3.214-.361-.962-.876-1.781-1.542-2.457-.667-.676-1.472-1.2-2.415-1.572-.943-.371-1.995-.557-3.157-.557s-2.21.186-3.143.557c-.933.372-1.733.896-2.4 1.572-.666.676-1.18 1.495-1.543 2.457-.361.962-.542 2.033-.542 3.214s.18 2.248.542 3.2c.362.953.877 1.767 1.543 2.443.667.676 1.467 1.195 2.4 1.557.934.362 1.981.543 3.143.543zm0-3.029c-.686 0-1.257-.133-1.714-.4-.457-.266-.824-.623-1.1-1.071-.276-.448-.472-.952-.586-1.514-.114-.562-.171-1.138-.171-1.729 0-.59.057-1.171.171-1.743.114-.571.31-1.076.586-1.514.276-.438.643-.795 1.1-1.071.457-.277 1.028-.415 1.714-.415.686 0 1.262.138 1.729.415.466.276.838.633 1.114 1.071.276.438.471.943.586 1.514.114.572.171 1.153.171 1.743 0 .59-.057 1.167-.171 1.729-.115.562-.31 1.066-.586 1.514-.276.448-.648.805-1.114 1.071-.467.267-1.043.4-1.729.4zm15.547 2.8c.4 0 .81-.01 1.229-.028.419-.02.8-.057 1.142-.114v-3.143c-.19.038-.39.066-.6.085-.209.02-.428.029-.657.029-.685 0-1.143-.114-1.371-.343-.229-.228-.343-.686-.343-1.371V9.37h2.971V6.657h-2.97V2.23h-4.058v4.428h-2.457v2.714h2.457v8.715c0 .743.124 1.343.371 1.8.248.457.586.81 1.015 1.057.428.247.923.414 1.485.5.562.086 1.157.128 1.786.128zm7.89-.142v-7.743c0-1.505.247-2.586.743-3.243.495-.657 1.295-.986 2.4-.986.971 0 1.647.3 2.028.9.381.6.572 1.51.572 2.729v8.343h4.057v-9.086c0-.914-.081-1.748-.243-2.5-.162-.753-.443-1.39-.843-1.914-.4-.524-.947-.934-1.643-1.229-.695-.295-1.585-.443-2.671-.443-.762 0-1.543.195-2.343.586-.8.39-1.457 1.014-1.971 1.871h-.086V1.03h-4.057v20.4h4.057zm19.233.371c1.676 0 3.104-.381 4.285-1.143s2.057-2.028 2.629-3.8h-3.572c-.133.457-.495.89-1.085 1.3-.59.41-1.296.614-2.115.614-1.142 0-2.019-.295-2.628-.885-.61-.59-.943-1.543-1-2.857h10.657c.076-1.143-.02-2.239-.286-3.286-.266-1.048-.7-1.981-1.3-2.8-.6-.82-1.366-1.472-2.3-1.957-.933-.486-2.028-.729-3.285-.729-1.124 0-2.148.2-3.072.6-.924.4-1.719.948-2.386 1.643-.666.695-1.18 1.519-1.542 2.471-.362.953-.543 1.981-.543 3.086 0 1.143.176 2.19.528 3.143.353.952.853 1.771 1.5 2.457.648.686 1.438 1.214 2.372 1.586.933.371 1.98.557 3.143.557zm3.114-9.343h-6.6c.019-.286.08-.61.186-.971.104-.362.285-.705.542-1.029.258-.324.6-.595 1.029-.814.429-.22.967-.329 1.614-.329.99 0 1.729.267 2.215.8.485.534.823 1.315 1.014 2.343zm10.032 8.972V14.77c0-.666.067-1.285.2-1.857.134-.571.358-1.071.672-1.5.314-.428.728-.766 1.243-1.014.514-.248 1.143-.371 1.885-.371.248 0 .505.014.772.042.267.029.495.062.686.1V6.4c-.324-.095-.62-.143-.886-.143-.514 0-1.01.076-1.486.229-.476.152-.924.366-1.343.643-.419.276-.79.61-1.114 1-.324.39-.58.814-.771 1.271h-.058V6.657h-3.857V21.43h4.057zm12.805.371c.838 0 1.661-.081 2.471-.243.81-.162 1.529-.443 2.157-.843.629-.4 1.138-.928 1.529-1.585.39-.658.585-1.472.585-2.443 0-.686-.133-1.262-.4-1.729-.266-.467-.619-.857-1.057-1.171-.438-.315-.938-.567-1.5-.757-.562-.19-1.138-.353-1.728-.486-.572-.133-1.134-.257-1.686-.372-.552-.114-1.043-.242-1.471-.385-.429-.143-.777-.329-1.043-.557-.267-.229-.4-.524-.4-.886 0-.305.076-.548.228-.729.153-.18.338-.319.557-.414.22-.095.462-.157.729-.186.267-.028.514-.043.743-.043.724 0 1.352.139 1.886.415.533.276.828.804.885 1.585h3.857c-.076-.914-.31-1.671-.7-2.271-.39-.6-.88-1.081-1.471-1.443-.59-.362-1.262-.619-2.014-.771-.753-.153-1.529-.229-2.329-.229-.8 0-1.58.072-2.343.214-.762.143-1.447.39-2.057.743-.61.353-1.1.834-1.471 1.443-.372.61-.557 1.39-.557 2.343 0 .648.133 1.195.4 1.643.266.447.619.819 1.057 1.114.438.295.938.533 1.5.714.562.181 1.138.339 1.728.472 1.448.305 2.576.61 3.386.914.81.305 1.214.762 1.214 1.372 0 .361-.085.661-.257.9-.171.238-.386.428-.643.571-.257.143-.543.248-.857.314-.314.067-.614.1-.9.1-.4 0-.786-.047-1.157-.143-.371-.095-.7-.242-.986-.442-.285-.2-.519-.458-.7-.772-.18-.314-.271-.69-.271-1.128h-3.857c.038.99.262 1.814.671 2.471.41.657.933 1.186 1.572 1.586.638.4 1.366.685 2.185.857.82.171 1.657.257 2.515.257zM63.443 48.429c1.695 0 3.047-.229 4.057-.686 1.01-.457 1.781-1.014 2.314-1.672.534-.657.881-1.366 1.043-2.128.162-.762.243-1.438.243-2.029V28.086h-3.857v1.971h-.057c-.496-.857-1.11-1.467-1.843-1.828-.733-.362-1.586-.543-2.557-.543-1.029 0-1.938.2-2.729.6-.79.4-1.452.938-1.986 1.614-.533.676-.938 1.457-1.214 2.343-.276.886-.414 1.805-.414 2.757 0 1.01.119 1.967.357 2.871.238.905.614 1.696 1.129 2.372.514.676 1.171 1.21 1.971 1.6.8.39 1.752.586 2.857.586.895 0 1.748-.186 2.557-.558.81-.371 1.434-.947 1.872-1.728h.057v1.943c.019 1.047-.233 1.914-.757 2.6-.524.685-1.357 1.028-2.5 1.028-.724 0-1.362-.147-1.915-.443-.552-.295-.923-.823-1.114-1.585H56.93c.057.838.29 1.557.7 2.157.41.6.923 1.09 1.542 1.471.62.381 1.305.662 2.058.843.752.181 1.49.272 2.214.272zm.343-9.058c-.629 0-1.153-.133-1.572-.4-.419-.266-.757-.61-1.014-1.028-.257-.42-.438-.89-.543-1.414-.105-.524-.157-1.053-.157-1.586 0-.553.062-1.081.186-1.586.124-.505.324-.952.6-1.343.276-.39.619-.7 1.028-.928.41-.229.9-.343 1.472-.343.666 0 1.219.124 1.657.371.438.248.79.581 1.057 1 .267.42.457.9.571 1.443.115.543.172 1.12.172 1.729 0 .533-.072 1.043-.214 1.528-.143.486-.358.92-.643 1.3-.286.381-.648.686-1.086.915-.438.228-.943.342-1.514.342zm12.29 8.658c1.39 0 2.476-.258 3.257-.772.78-.514 1.39-1.371 1.828-2.571l6.172-16.6h-4.2L79.904 38.2h-.057l-3.343-10.114H72.19l5.171 13.857c.115.286.172.59.172.914 0 .438-.129.838-.386 1.2s-.652.572-1.186.629c-.4.019-.8.01-1.2-.029l-1.171-.114v3.343c.419.038.833.071 1.243.1.41.028.823.043 1.243.043zm16.318-5.172v-8.571c0-.724.105-1.31.314-1.757.21-.448.462-.79.757-1.029.296-.238.6-.4.915-.486.314-.085.566-.128.757-.128.647 0 1.138.11 1.471.328.333.22.572.51.714.872.143.362.224.757.243 1.185.02.429.029.862.029 1.3v8.286h4.057V34.63c0-.458.033-.91.1-1.358.067-.447.2-.847.4-1.2.2-.352.476-.638.829-.857.352-.219.814-.328 1.385-.328.572 0 1.024.095 1.357.285.334.19.586.448.758.772.171.324.276.705.314 1.143.038.438.057.904.057 1.4v8.371h4.057v-9.886c0-.952-.133-1.766-.4-2.442-.267-.677-.638-1.224-1.114-1.643-.476-.42-1.048-.724-1.714-.915-.667-.19-1.39-.285-2.172-.285-1.028 0-1.919.247-2.671.743-.753.495-1.348 1.066-1.786 1.714-.4-.914-.986-1.553-1.757-1.914-.772-.362-1.624-.543-2.557-.543-.972 0-1.834.21-2.586.628-.752.42-1.395 1.01-1.929 1.772h-.057v-2h-3.828v14.771h4.057z"/>
                <g filter="url(#o0xu3dq9db)">
                    <g filter="url(#udo1zs9tsc)">
                        <g filter="url(#4889sxfind)" transform="translate(14.051 11.847)">
                            <g filter="url(#01fz9k2nce)">
                                <path fill="#000" d="M11.835.052c.27 0 .539.014.806.044.284.032.565.082.842.15.534.129 1.052.325 1.539.582.485.257.94.575 1.348.947.399.365.752.781 1.052 1.234.297.45.542.935.726 1.444.195.539.321 1.104.373 1.676.024.266.033.533.028.8-.006.285-.027.57-.065.85-.039.282-.095.561-.169.835.17.155.333.317.49.486.079.084.155.17.23.257.19.22.37.45.54.687.389.549.722 1.14.99 1.76.134.312.251.632.35.957.101.328.183.662.246 1 .064.339.108.681.132 1.025.02.279.026.559.02.838-.008.363-.038.726-.09 1.086-.05.361-.124.719-.218 1.07-.095.352-.211.698-.348 1.035-.06.148-.124.295-.191.44-.078.17-.162.337-.252.501-.271.497-.588.969-.945 1.405-.358.437-.757.84-1.19 1.199-.43.358-.893.674-1.379.946-.482.27-.987.497-1.506.684-.518.187-1.05.333-1.589.444-.363.075-.729.134-1.096.18-.563.069-1.13.106-1.698.116-.59.01-1.18-.009-1.77-.05-.618-.043-1.235-.11-1.85-.197-.65-.092-1.297-.206-1.942-.336-.684-.14-1.365-.298-2.042-.471l-3.156-.808L2.794.052zm0 3.767H6.047L4.099 20.022c6.876 1.759 11.177 1.058 12.906-2.105.048-.089.093-.178.135-.27.043-.091.083-.183.12-.277.252-.62.378-1.274.378-1.963 0-.63-.117-1.25-.349-1.86-.232-.61-.56-1.167-.986-1.669-.425-.502-.928-.905-1.509-1.21-.58-.306-1.208-.458-1.885-.458h-1.054l-.452 3.765c-.077.637-.643 1.09-1.266 1.012-.622-.079-1.064-.659-.987-1.296l.582-4.84c.076-.638.643-1.09 1.265-1.012.58.073 1.004.583.996 1.169l-.008.127c.133-.008.265-.022.396-.045.184-.033.366-.084.541-.151.166-.064.326-.144.477-.24.143-.09.277-.195.399-.313.12-.116.228-.245.322-.383.095-.141.177-.292.243-.45.067-.163.118-.332.152-.506.035-.186.05-.377.05-.567 0-.18-.015-.36-.05-.537-.034-.17-.085-.338-.152-.498-.067-.16-.148-.312-.243-.455-.093-.141-.2-.274-.318-.393-.119-.12-.25-.228-.39-.322-.147-.098-.304-.18-.467-.247-.17-.07-.347-.122-.527-.157-.192-.036-.388-.052-.583-.052z"/>
                            </g>
                        </g>
                        <path fill="#FFF" d="M24.107 0c13.314 0 24.107 10.793 24.107 24.107S37.421 48.214 24.107 48.214 0 37.421 0 24.107 10.793 0 24.107 0zm0 2.755c-11.792 0-21.352 9.56-21.352 21.352 0 11.793 9.56 21.352 21.352 21.352 11.793 0 21.352-9.56 21.352-21.352S35.9 2.755 24.107 2.755z"/>
                    </g>
                </g>
            </g>
        </g>
    </g>
</svg>
